<?xml version="1.0" encoding="UTF-8" standalone="no"?>
<!-- Created with Inkscape (http://www.inkscape.org/) -->

<svg
   width="115.01209mm"
   height="116.05463mm"
   viewBox="0 0 115.01209 116.05464"
   version="1.1"
   id="svg1"
   xml:space="preserve"
   xmlns="http://www.w3.org/2000/svg"
   xmlns:svg="http://www.w3.org/2000/svg"><defs
     id="defs1" /><g
     id="layer1"
     transform="translate(-34.018775,-140.49686)"><g
       id="g9"
       transform="translate(-7.5272727,114.79091)"><path
         style="fill:#7041cd"
         d="m 140.73759,141.26335 c -2.04403,-0.59401 -4.17621,-1.80017 -6.02515,-3.40839 -4.74288,-4.12539 -7.89848,-4.58807 -14.21547,-2.08432 -6.90062,2.73507 -11.23643,3.68667 -19.97604,4.38426 C 53.469904,143.91045 23.624449,84.9353 53.577756,47.394357 95.397021,-5.0183763 178.24025,46.452931 150.37638,107.53628 c -2.10108,4.60599 -1.42747,7.62606 2.79068,12.51173 8.2315,9.53415 -0.62241,24.64653 -12.42947,21.21534 z m 5.42396,-0.3202 c 9.75712,-1.51247 13.05194,-13.12394 6.07929,-21.42431 -3.71728,-4.42511 -4.22636,-7.56008 -2.0429,-12.58034 21.23799,-48.83091 -29.48327,-98.6729112 -76.435978,-75.110941 -3.475079,1.743876 -3.213803,1.836935 1.119633,0.398778 42.736555,-14.183171 77.161305,36.00455 48.639365,70.911163 -22.36041,27.36581 -65.522385,4.90951 -55.91499,-29.091434 0.854772,-3.025071 0.669349,-3.135865 -0.65421,-0.390904 -16.580551,34.386808 15.501064,71.208038 53.41292,61.303938 7.06849,-1.84658 10.13799,-1.32305 14.41966,2.45938 2.15929,1.90753 4.91808,3.30877 7.15328,3.6333 1.56055,0.22657 2.16113,0.21113 4.22393,-0.10863 z m -41.71317,-26.57526 c 37.39408,-7.62043 32.21204,-63.243838 -5.891981,-63.243838 -37.823587,0 -43.593,56.091578 -6.502138,63.215298 0.800365,0.15372 1.693333,0.32639 1.984375,0.3837 1.743524,0.34333 8.035574,0.12866 10.409744,-0.35516 z"
         id="path11" /><path
         style="fill:#25124a"
         d="m 142.42853,141.62451 c -2.2352,-0.32453 -5.97581,-1.97123 -8.1351,-3.87876 -4.28167,-3.78243 -6.86026,-4.63323 -13.92875,-2.78665 -37.911856,9.9041 -69.993471,-26.91713 -53.41292,-61.303938 1.323559,-2.744961 1.508982,-2.634167 0.65421,0.390904 -9.607395,34.000944 34.65405,55.578824 55.42408,28.600524 26.45829,-34.366818 -3.85736,-83.048878 -46.839364,-70.747525 -4.38961,1.256296 -7.634244,2.704584 -4.228724,0.828494 45.889078,-25.280152 100.946698,23.252758 78.726888,73.965491 -2.19703,5.01433 -1.42893,8.4825 2.28835,12.90761 3.23037,3.8455 3.7194,5.68246 3.55242,9.83986 -0.29034,7.22856 -6.88516,13.23166 -14.10109,12.18399 z"
         id="path10" /></g></g></svg>
